<?xml version="1.0" encoding="utf-8"?><svg xmlns="http://www.w3.org/2000/svg" xmlns:xlink="http://www.w3.org/1999/xlink"><symbol viewBox="0 0 10 11" id="i-delete" xmlns="http://www.w3.org/2000/svg"><g clip-path="url(#aclip0)"><path fill-rule="evenodd" clip-rule="evenodd" d="M6.186 5.357l3.56-3.634a.849.849 0 000-1.211.808.808 0 00-1.187 0L5 4.146 1.44.512a.808.808 0 00-1.186 0 .849.849 0 000 1.211l3.56 3.634-3.56 3.634a.849.849 0 000 1.212.808.808 0 001.187 0L5 6.568l3.56 3.635a.808.808 0 001.186 0 .849.849 0 000-1.212l-3.56-3.634z"/></g><defs><clipPath id="aclip0"><path transform="translate(0 .252)" d="M0 0h10v10.21H0z"/></clipPath></defs></symbol></svg>